<svg xmlns="http://www.w3.org/2000/svg" width="300" height="299.972"><defs><clipPath id="a"><path fill="#967f42" d="M150 104.972h150v90H150z"/></clipPath></defs><g fill="#00683e"><path d="M35.44 172.49c-1.2.96-2.28 1.84-3.28 2.68-.92.84-2.16 1.56-3.8 2.4-1.6.84-3.08 1.44-4.64 1.76-1.48.442-3.56.64-6.28.64-5 0-9.16-1.76-12.44-5.08-3.32-3.4-5-7.56-5-12.72 0-4.28.84-7.68 2.52-10.24 1.72-2.6 4.12-4.68 7.24-6.2 3.2-1.52 7.04-2.6 11.44-3.2 4.48-.56 9.24-1.12 14.4-1.4v-.358c0-3.08-1.2-5.28-3.48-6.44-2.32-1.2-5.76-1.8-10.4-1.8-2.12 0-4.52.4-7.32 1.2-2.76.68-5.48 1.72-8.2 2.88H4.76v-13.72c1.76-.56 4.56-1.12 8.48-1.84 3.92-.72 7.84-1.08 11.88-1.08 9.76 0 16.84 1.68 21.32 4.88 4.52 3.28 6.76 8.28 6.76 14.92v38.68H35.44zm0-8.88v-11.8c-3 .32-5.4.6-7.2.84-1.8.2-3.64.56-5.4 1.24-1.56.52-2.76 1.32-3.56 2.44-.88 1.12-1.36 2.56-1.36 4.32 0 2.64.76 4.48 2.16 5.48 1.4 1 3.52 1.44 6.36 1.44 1.44 0 3.04-.24 4.6-1.04 1.68-.64 3.12-1.68 4.4-2.92M92.04 179.97c-4.68 0-9.04-.64-12.92-1.8-3.84-1.2-7.2-3-10.08-5.44-2.88-2.52-5.08-5.6-6.68-9.28-1.6-3.72-2.36-8.16-2.36-13.16 0-5.48.8-10 2.56-13.88 1.72-3.8 4-6.92 7-9.36 2.84-2.36 6.16-4.12 10.04-5.24 3.8-1.16 7.8-1.72 11.96-1.72 3.12 0 6.32.402 9.4 1.16 3.16.68 6.28 1.84 9.44 3.44v15.16h-2.28c-.64-.68-1.56-1.44-2.56-2.16-1.08-.878-2.12-1.6-3.36-2.24-1.28-.798-2.8-1.28-4.32-1.84-1.68-.48-3.48-.758-5.48-.758-4.52 0-8.04 1.56-10.52 4.76-2.44 3.12-3.76 7.36-3.76 12.68 0 5.64 1.36 9.92 4 12.72 2.64 2.76 6.12 4.16 10.56 4.16 2.24 0 4.24-.28 5.96-.72 1.64-.52 3.08-1.16 4.24-1.84 1.24-.72 2.28-1.4 3.12-2.2.84-.72 1.6-1.4 2.12-2h2.28v15.12c-1 .44-2.16.96-3.52 1.56-1.32.52-2.6 1-4.04 1.36-1.68.56-3.36.8-4.84 1.08-1.52.28-3.48.44-5.96.44M187.72 178.45v-28.4c0-2.76-.04-5.08-.16-7.04-.12-1.92-.44-3.52-.96-4.72-.48-1.24-1.32-2.08-2.36-2.64-1.04-.6-2.56-.838-4.44-.838-1.36 0-2.68.24-4.04.84-1.32.6-2.76 1.48-4.32 2.52v40.28h-17.72v-28.4c0-2.76-.04-5.08-.16-7.04-.16-1.92-.4-3.52-.92-4.72-.56-1.24-1.32-2.08-2.36-2.64-1.12-.6-2.6-.84-4.48-.84-1.48 0-2.88.32-4.28.96-1.4.72-2.76 1.52-4.04 2.4v40.28h-17.72v-56.76h17.72v6.28c2.88-2.44 5.64-4.4 8.2-5.8 2.52-1.36 5.4-2.08 8.64-2.08 3.44 0 6.52.84 9.08 2.48 2.72 1.64 4.68 4.08 6.08 7.4 3.4-3.16 6.64-5.6 9.6-7.32 3.04-1.72 6.08-2.56 9.16-2.56 2.64 0 5 .48 7.12 1.28 2.08.88 3.88 2.16 5.28 3.8 1.64 1.84 2.8 4 3.56 6.52.84 2.52 1.2 5.76 1.2 9.84v36.92z"/></g><path d="M150-.027l-85 85h37.3L150 37.27l47.7 47.703H235l-85-85zm-85 215l85 85 85-85h-37.3l-47.7 47.7-47.7-47.7H65z" fill="#00683e"/><path d="M150-.028l-150 150 150 150 150-150-150-150zm0 37.3l112.7 112.7-112.7 112.7-112.7-112.7L150 37.272z" clip-path="url(#a)" fill="#967f42"/></svg>